Affine-Regular.sfdir
StartChar: quotesingle
Encoding: 39 39 84
Width: 100
Flags: HMW
LayerCount: 2
Fore
SplineSet
0 590 m 1
 0 770 l 1
 100 770 l 1
 100 590 l 1
 0 590 l 1
EndSplineSet
EndChar
StartChar: zero
Encoding: 48 48 70
Width: 310
Flags: HMWO
LayerCount: 2
Fore
SplineSet
80 400 m 3
 80 441 114 475 155 475 c 3
 196 475 230 441 230 400 c 3
 230 359 196 325 155 325 c 3
 114 325 80 359 80 400 c 3
EndSplineSet
EndChar
StartChar: one
Encoding: 49 49 71
Width: 480
Flags: MW
LayerCount: 2
Fore
SplineSet
50 440 m 1
 430 440 l 1
 430 360 l 1
 50 360 l 1
 50 440 l 1
EndSplineSet
EndChar
StartChar: two
Encoding: 50 50 72
Width: 480
Flags: MW
LayerCount: 2
Fore
SplineSet
165 500 m 3
 165 541 199 575 240 575 c 3
 281 575 315 541 315 500 c 3
 315 459 281 425 240 425 c 3
 199 425 165 459 165 500 c 3
50 320 m 5
 430 320 l 5
 430 240 l 5
 50 240 l 5
 50 320 l 5
EndSplineSet
EndChar
StartChar: three
Encoding: 51 51 73
Width: 480
Flags: MW
LayerCount: 2
Fore
SplineSet
50 550 m 1
 430 550 l 1
 430 470 l 1
 50 470 l 1
 50 550 l 1
50 330 m 1
 430 330 l 1
 430 250 l 1
 50 250 l 1
 50 330 l 1
EndSplineSet
EndChar
StartChar: eight
Encoding: 56 56 78
Width: 480
Flags: MW
LayerCount: 2
Fore
SplineSet
165 620 m 3
 165 661 199 695 240 695 c 3
 281 695 315 661 315 620 c 3
 315 579 281 545 240 545 c 3
 199 545 165 579 165 620 c 3
280 400 m 3
 280 441 314 475 355 475 c 3
 396 475 430 441 430 400 c 3
 430 359 396 325 355 325 c 3
 314 325 280 359 280 400 c 3
50 400 m 3
 50 441 84 475 125 475 c 3
 166 475 200 441 200 400 c 3
 200 359 166 325 125 325 c 3
 84 325 50 359 50 400 c 3
50 220 m 1
 430 220 l 1
 430 140 l 1
 50 140 l 1
 50 220 l 1
EndSplineSet
EndChar
StartChar: nine
Encoding: 57 57 69
Width: 480
Flags: MW
LayerCount: 2
Fore
SplineSet
50 660 m 1
 430 660 l 1
 430 580 l 1
 50 580 l 1
 50 660 l 1
280 400 m 7
 280 441 314 475 355 475 c 7
 396 475 430 441 430 400 c 7
 430 359 396 325 355 325 c 7
 314 325 280 359 280 400 c 7
50 400 m 7
 50 441 84 475 125 475 c 7
 166 475 200 441 200 400 c 7
 200 359 166 325 125 325 c 7
 84 325 50 359 50 400 c 7
50 220 m 5
 430 220 l 5
 430 140 l 5
 50 140 l 5
 50 220 l 5
EndSplineSet
EndChar
StartChar: A
Encoding: 65 65 33
Width: 500
Flags: HMW
LayerCount: 2
Fore
SplineSet
80 150 m 1
 420 150 l 1
 420 70 l 1
 80 70 l 1
 80 150 l 1
EndSplineSet
Refer: 0 97 N 1 0 0 1 0 0 2
EndChar
StartChar: C
Encoding: 67 67 35
Width: 380
Flags: HMW
LayerCount: 2
Fore
SplineSet
0 -30 m 1
 0 570 l 5
 100 570 l 1
 100 -30 l 1
 0 -30 l 1
EndSplineSet
Refer: 7 99 N 1 0 0 1 180 0 2
EndChar
StartChar: D
Encoding: 68 68 38
Width: 380
Flags: HMW
LayerCount: 2
Fore
SplineSet
0 230 m 1
 0 540 l 1
 100 540 l 1
 100 230 l 1
 0 230 l 1
EndSplineSet
Refer: 23 100 N 1 0 0 1 180 0 2
EndChar
StartChar: F
Encoding: 70 70 40
Width: 532
Flags: HMW
LayerCount: 2
Fore
SplineSet
266 796 m 5
 90 620 l 5
 154 556 l 5
 266 668 l 5
 378 556 l 5
 442 620 l 5
 266 796 l 5
EndSplineSet
Refer: 10 102 N 1 0 0 1 0 0 2
EndChar
StartChar: N
Encoding: 78 78 48
Width: 600
Flags: HMW
LayerCount: 2
Back
Refer: 6 103 S -1 0 0 -1 300 540 2
Refer: 6 103 N -1 0 0 -1 300 540 2
Refer: 6 103 N -1 0 0 -1 320 540 2
Fore
SplineSet
324 -30 m 1
 260 34 l 1
 536 310 l 1
 600 246 l 1
 324 -30 l 1
194 100 m 1
 130 164 l 1
 406 440 l 1
 470 376 l 1
 194 100 l 1
64 230 m 1
 0 294 l 1
 276 570 l 1
 340 506 l 1
 64 230 l 1
EndSplineSet
EndChar
StartChar: T
Encoding: 84 84 54
Width: 280
Flags: HMW
LayerCount: 2
Fore
SplineSet
0 230 m 5
 0 540 l 5
 100 540 l 5
 100 230 l 5
 0 230 l 5
EndSplineSet
Refer: 21 116 N 1 0 0 1 180 0 2
EndChar
StartChar: V
Encoding: 86 86 56
Width: 532
Flags: HMW
LayerCount: 2
Fore
SplineSet
0 294 m 1
 158 452 l 1
 222 388 l 1
 64 230 l 1
 0 294 l 1
532 294 m 1
 468 230 l 1
 310 388 l 1
 374 452 l 1
 532 294 l 1
310 388 m 1
 310 770 l 1
 410 770 l 1
 410 388 l 1
 310 388 l 1
122 388 m 1
 122 770 l 1
 222 770 l 1
 222 388 l 1
 122 388 l 1
EndSplineSet
EndChar
StartChar: a
Encoding: 97 97 0
Width: 400
Flags: HMW
LayerCount: 2
Fore
SplineSet
0 450 m 5
 400 450 l 5
 400 350 l 5
 0 350 l 5
 0 450 l 5
EndSplineSet
EndChar
StartChar: d
Encoding: 100 100 24
Width: 275
Flags: HMW
LayerCount: 2
Fore
SplineSet
275 625 m 2
 275 473 152 350 0 350 c 1
 0 450 l 1
 97 450 175 528 175 625 c 2
 175 900 l 1
 275 900 l 1
 275 625 l 2
EndSplineSet
EndChar
StartChar: e
Encoding: 101 101 2
Width: 180
Flags: W
HStem: 380 40<0 180> 460 64<59.6491 120.351>
VStem: 0 180<380 420> 58 64<461.649 522.351>
LayerCount: 2
Fore
SplineSet
0 420 m 1xe0
 180 420 l 1
 180 380 l 1
 0 380 l 1
 0 420 l 1xe0
EndSplineSet
Refer: 1 729 S 1 0 0 1 90 492 2
EndChar
StartChar: g
Encoding: 103 103 6
Width: 100
Flags: HMW
LayerCount: 2
Fore
SplineSet
-100 770 m 5
 200 770 l 5
 200 690 l 5
 -100 690 l 5
 -100 770 l 5
EndSplineSet
Refer: 2 107 N 1 0 0 1 0 0 2
EndChar
StartChar: h
Encoding: 104 104 12
Width: 550
Flags: HMW
LayerCount: 2
Fore
SplineSet
0 400 m 3
 0 552 123 675 275 675 c 3
 427 675 550 552 550 400 c 3
 550 248 427 125 275 125 c 3
 123 125 0 248 0 400 c 3
100 400 m 7
 100 303 178 225 275 225 c 7
 372 225 450 303 450 400 c 7
 450 497 372 575 275 575 c 7
 178 575 100 497 100 400 c 7
EndSplineSet
EndChar
StartChar: k
Encoding: 107 107 3
Width: 100
Flags: HMW
LayerCount: 2
Fore
SplineSet
0 30 m 5
 0 770 l 5
 100 770 l 5
 100 30 l 5
 0 30 l 5
EndSplineSet
EndChar
StartChar: l
Encoding: 108 108 16
Width: 375
Flags: HMW
LayerCount: 2
Fore
SplineSet
275 625 m 2
 275 473 152 350 0 350 c 1
 0 450 l 1
 97 450 175 528 175 625 c 2
 175 770 l 1
 275 770 l 1
 275 625 l 2
0 450 m 1
 375 450 l 1
 375 350 l 1
 0 350 l 1
 0 450 l 1
EndSplineSet
EndChar
StartChar: n
Encoding: 110 110 26
Width: 152
Flags: MW
LayerCount: 2
Fore
SplineSet
0 420 m 1
 152 420 l 1
 152 380 l 1
 0 380 l 1
 0 420 l 1
EndSplineSet
Refer: 24 100 N 1 0 0 1 0 0 2
Validated: 5
EndChar
StartChar: q
Encoding: 113 113 18
Width: 350
Flags: HMW
LayerCount: 2
Fore
SplineSet
0 -65 m 3
 0 32 78 100 175 100 c 3
 272 100 350 32 350 -65 c 3
 350 -162 272 -230 175 -230 c 3
 78 -230 0 -162 0 -65 c 3
250 -65 m 3
 250 -24 216 20 175 20 c 3
 134 20 100 -24 100 -65 c 3
 100 -106 134 -150 175 -150 c 3
 216 -150 250 -106 250 -65 c 3
125 50 m 1
 125 770 l 1
 225 770 l 1
 225 50 l 1
 125 50 l 1
EndSplineSet
EndChar
StartChar: s
Encoding: 115 115 9
Width: 340
Flags: HMW
LayerCount: 2
Fore
SplineSet
64 -30 m 5
 0 34 l 5
 276 310 l 5
 340 246 l 5
 64 -30 l 5
64 230 m 5
 0 294 l 5
 276 570 l 5
 340 506 l 5
 64 230 l 5
EndSplineSet
EndChar
StartChar: y
Encoding: 121 121 18
Width: 350
Flags: HMW
LayerCount: 2
Fore
SplineSet
100 625 m 3
 100 666 134 700 175 700 c 7
 216 700 250 666 250 625 c 3
 250 584 216 550 175 550 c 3
 134 550 100 584 100 625 c 3
100 400 m 3
 100 441 134 475 175 475 c 7
 216 475 250 441 250 400 c 3
 250 359 216 325 175 325 c 3
 134 325 100 359 100 400 c 3
EndSplineSet
EndChar
StartChar: dotaccent
Encoding: 729 729 1
Width: 100
Flags: W
HStem: -32 64<-30.3509 30.3509>
VStem: -32 64<-30.3509 30.3509>
LayerCount: 2
Fore
SplineSet
-32 0 m 4
 -32 18 -18 32 0 32 c 4
 18 32 32 18 32 0 c 4
 32 -18 18 -32 0 -32 c 4
 -18 -32 -32 -18 -32 0 c 4
EndSplineSet
Validated: 1
EndChar
StartChar: quoteright
Encoding: 8217 8217 83
Width: 178
Flags: HMW
LayerCount: 2
Fore
SplineSet
100 315 m 1
 178 270 l 1
 78 97 l 1
 0 142 l 1
 100 315 l 1
100 225 m 1
 0 398 l 1
 78 443 l 1
 178 270 l 1
 100 225 l 1
EndSplineSet
EndChar
StartChar: quotedblright
Encoding: 8221 8221 89
Width: 328
Flags: HW
LayerCount: 2
Fore
SplineSet
254 536 m 1
 190 600 l 1
 228 638 l 1
 228 770 l 1
 328 770 l 1
 328 610 l 1
 254 536 l 1
64 536 m 1
 0 600 l 1
 38 638 l 1
 38 770 l 1
 138 770 l 1
 138 610 l 1
 64 536 l 1
EndSplineSet
EndChar
StartChar: C_h
Encoding: 65544 -1 61
Width: 400
Flags: HMW
LayerCount: 2
Fore
SplineSet
380 770 m 1
 380 690 l 1
 321 690 280 654 280 530 c 3
 280 413 280 410 280 410 c 1
 180 410 l 1
 180 410 180 413 180 530 c 3
 180 726 283 770 380 770 c 1
0 -80 m 1
 0 620 l 1
 100 620 l 1
 100 -80 l 1
 0 -80 l 1
380 -230 m 1
 283 -230 180 -186 180 10 c 3
 180 127 180 130 180 130 c 1
 280 130 l 1
 280 130 280 127 280 10 c 3
 280 -114 321 -150 380 -150 c 1
 380 -230 l 1
EndSplineSet
Refer: 11 104 N 1 0 0 1 0 0 2
LCarets2: 1 0
Ligature2: "standard ligatures-1" C H
Ligature2: "standard ligatures-1" C h
EndChar
StartChar: Q_u
Encoding: 65551 -1 84
Width: 405
Flags: HMW
LayerCount: 2
Fore
SplineSet
0 230 m 1
 0 570 l 1
 100 570 l 1
 100 230 l 1
 0 230 l 1
305 -20 m 3
 305 21 291 95 230 95 c 3
 169 95 155 21 155 -20 c 0
 55 -20 l 3
 55 77 133 175 230 175 c 3
 327 175 405 77 405 -20 c 0
 305 -20 l 3
180 125 m 1
 180 770 l 1
 280 770 l 1
 280 125 l 1
 180 125 l 1
280 -155 m 3
 280 -114 314 -80 355 -80 c 3
 396 -80 430 -114 430 -155 c 3
 430 -196 396 -230 355 -230 c 3
 314 -230 280 -196 280 -155 c 3
30 -155 m 3
 30 -114 64 -80 105 -80 c 3
 146 -80 180 -114 180 -155 c 3
 180 -196 146 -230 105 -230 c 3
 64 -230 30 -196 30 -155 c 3
EndSplineSet
LCarets2: 1 0
Ligature2: "standard ligatures-1" Q u
EndChar
StartChar: S_h
Encoding: 65546 -1 63
Width: 400
Flags: HMW
LayerCount: 2
Fore
SplineSet
400 240 m 1
 200 40 l 1
 136 104 l 1
 336 304 l 1
 400 240 l 1
0 240 m 1
 64 304 l 1
 264 104 l 1
 200 40 l 1
 0 240 l 1
300 240 m 25
 300 300 l 2
 300 341 241 385 200 385 c 3
 159 385 100 341 100 300 c 2
 100 240 l 25
 0 240 l 25
 0 300 l 2
 0 397 103 465 200 465 c 3
 297 465 400 397 400 300 c 2
 400 240 l 25
 300 240 l 25
400 -64 m 1
 200 -264 l 1
 136 -200 l 1
 336 0 l 1
 400 -64 l 1
0 -64 m 1
 64 0 l 1
 264 -200 l 1
 200 -264 l 1
 0 -64 l 1
EndSplineSet
LCarets2: 1 0
Ligature2: "standard ligatures-1" S H
Ligature2: "standard ligatures-1" S h
EndChar
StartChar: T_h
Encoding: 65545 -1 62
Width: 400
Flags: HMW
LayerCount: 2
Fore
SplineSet
60 400 m 1
 60 770 l 1
 160 770 l 1
 160 400 l 1
 60 400 l 1
240 400 m 1
 240 770 l 1
 340 770 l 1
 340 400 l 1
 240 400 l 1
EndSplineSet
Refer: 11 104 S 1 0 0 1 0 0 2
LCarets2: 1 0
Ligature2: "standard ligatures-1" T h
Ligature2: "standard ligatures-1" T H
EndChar
StartChar: W_h
Encoding: 65549 -1 66
Width: 400
Flags: HMW
LayerCount: 2
Fore
SplineSet
125 -115 m 3
 125 -74 159 -40 200 -40 c 3
 241 -40 275 -74 275 -115 c 3
 275 -156 241 -190 200 -190 c 3
 159 -190 125 -156 125 -115 c 3
EndSplineSet
Refer: 63 -1 N -1 0 0 -1 400 541 2
LCarets2: 1 0
Ligature2: "standard ligatures-1" W h
Ligature2: "standard ligatures-1" W H
EndChar
StartChar: c_h
Encoding: 65536 -1 28
Width: 550
Flags: HMW
LayerCount: 2
Fore
SplineSet
0 400 m 3
 0 552 123 665 275 665 c 3
 427 665 550 552 550 400 c 3
 550 248 427 135 275 135 c 7
 123 135 0 248 0 400 c 3
100 400 m 3
 100 303 178 215 275 215 c 3
 372 215 450 303 450 400 c 3
 450 497 372 585 275 585 c 7
 178 585 100 497 100 400 c 3
225 180 m 1
 225 620 l 1
 325 620 l 1
 325 180 l 1
 225 180 l 1
EndSplineSet
LCarets2: 1 0
Ligature2: "standard ligatures-1" c h
EndChar
StartChar: f_f
Encoding: 65543 -1 35
Width: 400
Flags: W
HStem: 585 80<152.218 247.782> 835 80<152.218 247.782>
VStem: 25 100<694.229 805.771> 275 100<694.229 805.771>
LayerCount: 2
Fore
SplineSet
25 750 m 7
 25 847 103 915 200 915 c 7
 297 915 375 847 375 750 c 7
 375 653 297 585 200 585 c 7
 103 585 25 653 25 750 c 7
275 750 m 7
 275 791 241 835 200 835 c 7
 159 835 125 791 125 750 c 7
 125 709 159 665 200 665 c 7
 241 665 275 709 275 750 c 7
EndSplineSet
Refer: 11 102 N 1 0 0 1 0 0 2
LCarets2: 1 0
Ligature2: "standard ligatures-1" f f
EndChar
StartChar: g_h
Encoding: 65540 -1 31
Width: 550
Flags: HMW
LayerCount: 2
Fore
SplineSet
0 270 m 3
 0 422 123 535 275 535 c 3
 427 535 550 422 550 270 c 3
 550 118 427 5 275 5 c 3
 123 5 0 118 0 270 c 3
100 270 m 3
 100 173 178 85 275 85 c 3
 372 85 450 173 450 270 c 3
 450 367 372 455 275 455 c 3
 178 455 100 367 100 270 c 3
200 -155 m 3
 200 -114 234 -80 275 -80 c 3
 316 -80 350 -114 350 -155 c 3
 350 -196 316 -230 275 -230 c 3
 234 -230 200 -196 200 -155 c 3
200 695 m 3
 200 736 234 770 275 770 c 3
 316 770 350 736 350 695 c 3
 350 654 316 620 275 620 c 3
 234 620 200 654 200 695 c 3
225 50 m 1
 225 490 l 1
 325 490 l 1
 325 50 l 1
 225 50 l 1
EndSplineSet
Ligature2: "standard ligatures-1" g h
LCarets2: 1 0
EndChar
StartChar: l_l
Encoding: 65552 -1 79
Width: 736
Flags: HMW
LayerCount: 2
Fore
SplineSet
266 4 m 1
 0 270 l 1
 64 334 l 1
 330 68 l 1
 266 4 l 1
266 536 m 1
 330 472 l 1
 64 206 l 1
 0 270 l 1
 266 536 l 1
EndSplineSet
Refer: 15 108 N 1 0 0 1 236 0 2
LCarets2: 1 0
Ligature2: "standard ligatures-1" l l
EndChar
StartChar: n_g
Encoding: 65542 -1 34
Width: 375
Flags: HMWO
LayerCount: 2
Fore
SplineSet
125 925 m 3
 125 966 159 1000 200 1000 c 3
 241 1000 275 966 275 925 c 3
 275 884 241 850 200 850 c 3
 159 850 125 884 125 925 c 3
EndSplineSet
Refer: 26 110 N 1 0 0 1 0 0 2
LCarets2: 1 0
Ligature2: "standard ligatures-1" n g
EndChar
StartChar: n_quoteright_t
Encoding: 65550 -1 80
Width: 532
Flags: HMW
LayerCount: 2
Fore
SplineSet
215 495 m 1
 215 770 l 1
 315 770 l 1
 315 495 l 1
 215 495 l 1
EndSplineSet
Refer: 25 110 N 1 0 0 1 0 0 2
Ligature2: "standard ligatures-1" n quotesingle t
Ligature2: "standard ligatures-1" n quoteright t
LCarets2: 2 0 0
EndChar
StartChar: q_u
Encoding: 65546 -1 73
Width: 350
Flags: HMW
LayerCount: 2
Fore
SplineSet
250 -20 m 7
 250 21 236 95 175 95 c 7
 114 95 100 21 100 -20 c 4
 0 -20 l 7
 0 77 78 175 175 175 c 7
 272 175 350 77 350 -20 c 4
 250 -20 l 7
125 125 m 5
 125 770 l 5
 225 770 l 5
 225 125 l 5
 125 125 l 5
225 -155 m 7
 225 -114 259 -80 300 -80 c 7
 341 -80 375 -114 375 -155 c 7
 375 -196 341 -230 300 -230 c 7
 259 -230 225 -196 225 -155 c 7
-25 -155 m 7
 -25 -114 9 -80 50 -80 c 7
 91 -80 125 -114 125 -155 c 7
 125 -196 91 -230 50 -230 c 7
 9 -230 -25 -196 -25 -155 c 7
EndSplineSet
LCarets2: 1 0
Ligature2: "standard ligatures-1" q u
EndChar
StartChar: quoteright_s
Encoding: 65554 -1 84
Width: 532
Flags: HMW
LayerCount: 2
Fore
SplineSet
0 246 m 1
 266 512 l 1
 330 448 l 1
 64 182 l 1
 0 246 l 1
EndSplineSet
Refer: 9 115 N 1 0 0 1 0 0 2
Ligature2: "standard ligatures-1" quotesingle s
Ligature2: "standard ligatures-1" quoteright s
LCarets2: 1 0
EndChar
StartChar: s_h
Encoding: 65538 -1 30
Width: 336
Flags: HMW
LayerCount: 2
Fore
SplineSet
236 431.352539062 m 1
 223.990234375 456.977539062 197.850585938 475 168 475 c 3
 138.149414062 475 112.009765625 456.977539062 100 431.352539062 c 1
 100 143.647460938 l 5
 112.009765625 118.022460938 138.149414062 100 168 100 c 7
 197.850585938 100 223.990234375 118.022460938 236 143.647460938 c 5
 236 431.352539062 l 1
0 125 m 5
 0 450 l 1
 21.3974609375 522.4609375 88.390625 575 168 575 c 3
 247.609375 575 314.602539062 522.4609375 336 450 c 1
 336 125 l 5
 314.602539062 52.5390625 247.609375 0 168 0 c 7
 88.390625 0 21.3974609375 52.5390625 0 125 c 5
EndSplineSet
Ligature2: "standard ligatures-1" s h
LCarets2: 1 0
EndChar
StartChar: t_h
Encoding: 65537 -1 29
Width: 350
Flags: HMW
LayerCount: 2
Fore
SplineSet
125 570 m 1
 125 770 l 1
 225 770 l 1
 225 570 l 1
 125 570 l 1
EndSplineSet
Refer: 12 104 S 1 0 0 1 0 0 2
LCarets2: 1 0
Ligature2: "standard ligatures-1" t h
EndChar
StartChar: w_h
Encoding: 65541 -1 32
Width: 400
Flags: HMW
LayerCount: 2
Fore
SplineSet
125 -155 m 3
 125 -114 159 -80 200 -80 c 3
 241 -80 275 -114 275 -155 c 3
 275 -196 241 -230 200 -230 c 3
 159 -230 125 -196 125 -155 c 3
125 695 m 3
 125 736 159 770 200 770 c 3
 241 770 275 736 275 695 c 3
 275 654 241 620 200 620 c 3
 159 620 125 654 125 695 c 3
EndSplineSet
Refer: 11 104 N 1 0 0 1 0 0 2
Ligature2: "standard ligatures-1" w h
LCarets2: 1 0
EndChar
